<?xml version="1.0" encoding="iso-8859-1"?>
<!-- Generator: Adobe Illustrator 19.0.0, SVG Export Plug-In . SVG Version: 6.00 Build 0)  -->
<svg version="1.1" id="Layer_1" xmlns="http://www.w3.org/2000/svg" xmlns:xlink="http://www.w3.org/1999/xlink" x="0px" y="0px"
	 viewBox="0 0 512.001 512.001" style="enable-background:new 0 0 512.001 512.001;" xml:space="preserve">
<rect x="80.186" y="336.78" style="fill:#707487;" width="47.517" height="66.037"/>
<path style="fill:#FF7873;" d="M446.07,175.221v114.042l49.08-8.18c4.583-0.764,7.941-4.728,7.941-9.374v-78.934
	c0-4.646-3.358-8.61-7.941-9.374L446.07,175.221z"/>
<path style="fill:#FF5050;" d="M446.07,13.662h-4.916c-2.899,0-5.544,1.361-7.358,3.622
	C364.125,104.063,108.201,116.22,36.94,117.923c-10.327,0.246-18.527,8.67-18.527,18.999v190.64c0,10.329,8.2,18.753,18.527,19
	c71.262,1.703,327.185,13.86,396.856,100.638c1.814,2.259,4.46,3.622,7.358,3.622h4.916c5.248,0,9.503-4.255,9.503-9.503V23.165
	C455.573,17.917,451.318,13.662,446.07,13.662z"/>
<path style="fill:#C84146;" d="M446.07,327.277h-4.916c-2.899,0-5.544-0.741-7.358-1.968
	c-62.251-42.14-273.092-51.897-368.141-54.158c-5.156-0.122-9.228-4.341-9.228-9.498V117.31c-7.423,0.28-14.05,0.482-19.487,0.612
	c-10.327,0.247-18.527,8.671-18.527,19v190.64c0,10.329,8.2,18.753,18.527,19c71.262,1.703,327.185,13.86,396.856,100.638
	c1.814,2.259,4.46,3.622,7.358,3.622h4.916c5.248,0,9.503-4.255,9.503-9.503V322.112
	C455.573,324.964,451.318,327.277,446.07,327.277z"/>
<path style="fill:#FF5050;" d="M134.784,409.036c-3.212-14.455-16.032-24.739-30.84-24.739s-27.628,10.284-30.84,24.739
	l-19.846,89.303h101.37L134.784,409.036z"/>
<path d="M489.558,172.932l-25.075-5.015V23.165c0-10.153-8.26-18.413-18.413-18.413h-4.916c-5.544,0-10.758,2.535-14.305,6.954
	c-27.916,34.771-94.447,62.095-192.402,79.021c-82.217,14.207-165.661,17.522-197.72,18.288
	c-15.266,0.365-27.224,12.622-27.224,27.906v190.64c0,15.284,11.958,27.542,27.224,27.907c7.406,0.177,17.558,0.491,29.797,1.042
	v43.843c-0.884,2.151-1.597,4.407-2.117,6.751L46.112,489.43H8.91c-4.92,0-8.91,3.989-8.91,8.91c0,4.92,3.989,8.91,8.91,8.91h190.07
	c4.92,0,8.91-3.989,8.91-8.91c0-4.92-3.989-8.91-8.91-8.91h-37.203l-18.294-82.326c-0.52-2.345-1.233-4.601-2.118-6.753
	c0-0.006,0.001-0.011,0.001-0.017V361.66c29.171,2.72,61.218,6.589,93.083,12.096c97.955,16.926,164.485,44.251,192.4,79.02
	c3.548,4.42,8.762,6.954,14.306,6.954h4.916c10.153,0,18.413-8.26,18.413-18.413v-144.75l25.075-5.015
	c13.004-2.6,22.442-14.113,22.442-27.374v-63.872C512,187.046,502.562,175.532,489.558,172.932z M143.523,489.43H64.366
	l17.435-78.461c2.324-10.459,11.429-17.762,22.143-17.762s19.82,7.303,22.143,17.762L143.523,489.43z M123.545,380.382
	c-5.828-3.201-12.516-4.994-19.601-4.994s-13.773,1.793-19.601,4.994v-22.968c11.901,0.67,25.098,1.547,39.202,2.692V380.382z
	 M494.181,264.177c0,4.797-3.414,8.961-8.117,9.9l-21.581,4.317v-46.154c0-4.92-3.989-8.91-8.91-8.91c-4.92,0-8.91,3.989-8.91,8.91
	v209.078c0,0.328-0.266,0.594-0.594,0.594h-4.916c-0.164,0-0.355-0.222-0.411-0.291c-31.114-38.754-99.501-67.495-203.262-85.424
	c-83.386-14.408-167.874-17.768-200.329-18.544c-5.512-0.132-9.83-4.564-9.83-10.093V136.922c0-5.527,4.318-9.961,9.83-10.093
	c32.454-0.776,116.943-4.135,200.329-18.544c103.76-17.928,172.147-46.67,203.263-85.424c0.055-0.068,0.246-0.29,0.41-0.29h4.916
	c0.328,0,0.594,0.266,0.594,0.594v171.059c0,4.92,3.989,8.91,8.91,8.91c4.92,0,8.91-3.989,8.91-8.91v-8.135l21.581,4.317
	c4.703,0.941,8.117,5.105,8.117,9.9V264.177z"/>
<path d="M132.455,166.311H56.427c-4.92,0-8.91,3.989-8.91,8.91s3.989,8.91,8.91,8.91h76.028c4.92,0,8.91-3.989,8.91-8.91
	S137.375,166.311,132.455,166.311z"/>
<path d="M132.455,280.353H56.427c-4.92,0-8.91,3.989-8.91,8.909c0,4.92,3.989,8.91,8.91,8.91h76.028c4.92,0,8.91-3.989,8.91-8.91
	C141.364,284.342,137.375,280.353,132.455,280.353z"/>
<path d="M132.455,223.332h-19.007c-4.92,0-8.91,3.989-8.91,8.91c0,4.92,3.989,8.91,8.91,8.91h19.007c4.92,0,8.91-3.989,8.91-8.91
	C141.364,227.321,137.375,223.332,132.455,223.332z"/>
<path d="M56.427,241.151H75.43c4.92,0,8.91-3.989,8.91-8.91c0-4.92-3.989-8.91-8.91-8.91H56.427c-4.92,0-8.91,3.989-8.91,8.91
	C47.517,237.162,51.506,241.151,56.427,241.151z"/>
<path d="M103.992,413.402h-0.095c-4.92,0-8.862,3.989-8.862,8.91c0,4.92,4.037,8.91,8.957,8.91s8.91-3.989,8.91-8.91
	C112.901,417.391,108.912,413.402,103.992,413.402z"/>
<g>
</g>
<g>
</g>
<g>
</g>
<g>
</g>
<g>
</g>
<g>
</g>
<g>
</g>
<g>
</g>
<g>
</g>
<g>
</g>
<g>
</g>
<g>
</g>
<g>
</g>
<g>
</g>
<g>
</g>
</svg>
